<?xml version="1.0" encoding="utf-8"?>
<!-- Generator: Adobe Illustrator 24.0.1, SVG Export Plug-In . SVG Version: 6.00 Build 0)  -->
<svg version="1.1" baseProfile="basic" id="Camada_1"
	 xmlns="http://www.w3.org/2000/svg" xmlns:xlink="http://www.w3.org/1999/xlink" x="0px" y="0px" viewBox="0 0 400 400"
	 xml:space="preserve">
<style type="text/css">
	.st0{fill:#FAB29A;}
	.st1{opacity:0.5;fill:#CC8A79;}
</style>
<g>
	<path class="st0" d="M229.2,246.5l-30.4,70.8l-21.6,50.3h-35.6v-70.2c0,0-9.6-5.7-27.1-26.4c-17.7-20.8-16.5-61.5-15.4-76.4
		L83,107.9c-1.3-6.7,3.2-13.2,10-14.4c6.6-1.1,12.8,3.5,14.2,10l16.6,75.2c0.3,1.2,1.5,2.1,2.7,1.9c1.4-0.2,2.3-1.4,2.2-2.8
		L117.6,73.2c-1-7.6,4.4-14.5,12-15.4c7.4-0.9,14,4.6,15.2,11.9l13.8,98.8c0.2,1,0.9,1.8,2,2c1.6,0.3,3-1,2.9-2.6l-3.8-118.4
		c-1-8.3,4.9-15.8,13.2-16.9c7.9-1,15.2,4.3,16.8,12.2l6.7,115.1c0.8,4.2,4.4,2.8,5.8-1.3l12-93.9c2-5.8,7.4-9.6,13.3-9.6
		c1.2,0,2.3,0.1,3.5,0.4c7.2,1.8,11.7,9,10.3,16.3l-6.2,89.6l-0.5,7.7l-0.8,11.2c1.2,5.4,1.6,12.7,3.3,22.2c0.9,5,2.2,10.6,4.2,16.9
		C244.9,231.2,237.9,240.2,229.2,246.5z"/>
	<path class="st1" d="M229.2,246.5l-30.4,70.8c-17.1-0.7-30.9-9.7-35.4-33.7c-14.7-79.6,59.6-75.6,59.6-75.6c2.9-1.4,9-3.7,14-5.4
		c0.9,5,2.2,10.6,4.2,16.9C244.9,231.2,237.9,240.2,229.2,246.5z"/>
	<path class="st0" d="M316.5,212.7c-4.4-8.5-14.5-19-30.8-19c-20.4,0-30.1,11.4-30.1,11.4s-14.4-0.5-29,8c0,0-64,1.2-64,64.3v90.1
		h53.9v-72.9l16.1-23.9c7.2-8.2,20.4-22.1,32.5-29.7c0,0,30.3-14.3,47.7-19.4C316.5,220.4,318.3,216.2,316.5,212.7z"/>
	<path class="st1" d="M235,161.5l-0.5,7.7c-92.7,3-124.4,23.8-128,26.4C142.7,166.3,221.5,162,235,161.5z"/>
</g>
</svg>
