<?xml version="1.0" encoding="utf-8"?>
<!-- Generator: Adobe Illustrator 24.0.1, SVG Export Plug-In . SVG Version: 6.00 Build 0)  -->
<svg version="1.1" baseProfile="basic" id="Camada_1"
	 xmlns="http://www.w3.org/2000/svg" xmlns:xlink="http://www.w3.org/1999/xlink" x="0px" y="0px" viewBox="0 0 400 400"
	 xml:space="preserve">
<style type="text/css">
	.st0{fill:#FAB29A;}
	.st1{opacity:0.5;fill:#CC8A79;}
</style>
<g>
	<path class="st0" d="M274,193.3l-69.7,162.4h-41v-81c0,0-11.1-6.6-31.3-30.4c-12.5-14.7-16.8-37.9-18-57.6c0,0,0,0,0,0
		c-1.2-20.3,0.9-37,0.9-37l12.5-4.1l26.9,0.4l38.9,0.5l-0.9-8.7l44.4-20.2l5.8-5.6l3.1-2.9c0,0,14-1,21.5,20.5
		c0,0,5.1,24.9,3.8,52.3c0,1-0.1,1.9-0.2,2.9l2.2,5.6L274,193.3z"/>
	<path class="st1" d="M272.6,196.4l0.3,10l-4.4-0.4l-35.2,82.1c-19.8,6-38,6.9-44-6.6c-15-33.8,1-55.7,1-55.7
		c-44.3,4.5-64.9-8.1-73.2-16.1c-6-29-2-60.1-2-60.1l12.5-4.1l65.7,0.9l-0.9-8.7l19.3-8.8l-3.9,43.9l27,13l37.6-3.1l0.2,6.4l1.6,4
		L272.6,196.4z"/>
	<path class="st1" d="M272.8,190.4l-15-0.7L242.5,112l3.1-2.9c0,0,14-1,21.5,20.5c0,0,5.1,24.9,3.8,52.3c0,1-0.1,1.9-0.2,2.9
		L272.8,190.4z"/>
	<path class="st0" d="M263.7,184.1c-0.3-5.8-0.8-13.4-1.5-21.4c-1.4-16.6-3.4-34.7-4.7-41c-2.3-11.8-10.2-17.2-22.3-15.9
		c-12,1.3-17.2,10.8-17.2,10.8l5.3,47.3l3.4,30.3c0,0-0.1,0.9-0.6,2.4c3.5,7.1,7.6,10.9,11.7,12.5c12.1,4.6,24.9-9.6,25.8-14.9
		C264,192.8,263.9,189.1,263.7,184.1z"/>
	<path class="st0" d="M223.4,164l-5.3-47.3c-2.7-1.5-5.3-2.5-7.7-3.2c-20-5.7-30.2,12.3-30.2,12.3l9.8,68.4c0,0,0,2-0.5,4.8
		c2.1,6.7,6.7,14.4,17,13c6.3-0.8,10.7-3.2,13.7-6c3.5-3.2,5.1-6.9,5.9-9.3c0.5-1.4,0.6-2.4,0.6-2.4L223.4,164z"/>
	<path class="st0" d="M147.7,210.3c-2.4,1.5-5.9,2.6-11.3,2.6c-16.4,0-16.4-10.2-21.5-63.2c0,0,3.4-17.9,23-15.1
		c1.9,0.3,3.9,0.7,6.1,1.4l8.5,66.3C152.5,202.3,152.7,207.1,147.7,210.3z"/>
	<path class="st0" d="M190,194.2c0,0,0.1,7.7-3.9,13.6c-2,3-5,5.4-9.6,6.2c-12.4,2.1-20.3-1.4-24-11.6L144,136c0,0,8-17,27.7-13
		c2.6,0.5,5.5,1.4,8.5,2.8L190,194.2z"/>
	<path class="st1" d="M226.8,194.3c0,0-1,6.5-6.5,11.6l-9.9-92.5c2.4,0.7,5,1.7,7.7,3.2L226.8,194.3z"/>
	<path class="st1" d="M190,194.2c0,0,0.1,7.7-3.9,13.6L171.7,123c2.6,0.5,5.5,1.4,8.5,2.8L190,194.2z"/>
	<path class="st1" d="M147.7,210.3l-9.8-75.7c1.9,0.3,3.9,0.7,6.1,1.4l8.5,66.3C152.5,202.3,152.7,207.1,147.7,210.3z"/>
	<path class="st1" d="M262.2,162.8c-0.7-0.1-1.5-0.1-2.3-0.1c-7.5,0.2-18.8,1.6-36.5,1.3c-0.7,0-1.3,0-2,0
		c-7.8-0.2-16.8-0.7-27.2-1.9c-2.3-0.2-4.5,1-5.4,3.1c-0.7,1.6-1.5,3.8-2,6.4l3.2,22.6c0,0,0,2-0.5,4.8c2.1,6.7,6.7,14.4,17,13
		c6.3-0.8,10.7-3.2,13.7-6c3.5-3.2,5.1-6.9,5.9-9.3c3.5,7.1,7.6,10.9,11.7,12.5c11.2-6.4,20.1-16.9,25.8-25
		c4.7-6.6,7.3-11.7,7.3-11.7S271.2,163.8,262.2,162.8z"/>
	<path class="st0" d="M187.4,251.9v103.9h62.2v-84l38.6-57.2c2.5-3.7,2.6-8.5,0.4-12.3L271,172.4c-2.5-4.2-7.4-6.4-12.3-5.5
		c-11.2,2.2-33.4,5.3-61.2,1.6c-3-0.4-5.8,1.7-6.2,4.7c-1.5,10.9-0.8,34.8,33.2,37.9C224.6,211.2,191.5,219.4,187.4,251.9z"/>
</g>
</svg>
