<?xml version="1.0" encoding="utf-8"?>
<!-- Generator: Adobe Illustrator 24.0.1, SVG Export Plug-In . SVG Version: 6.00 Build 0)  -->
<svg version="1.1" baseProfile="basic" id="Camada_1"
	 xmlns="http://www.w3.org/2000/svg" xmlns:xlink="http://www.w3.org/1999/xlink" x="0px" y="0px" viewBox="0 0 400 400"
	 xml:space="preserve">
<style type="text/css">
	.st0{fill:#FAB29A;}
	.st1{opacity:0.5;fill:#CC8A79;}
</style>
<g>
	<path class="st0" d="M282.3,65.8c0,0.9-0.1,1.8-0.3,2.7L254.4,207l-1.5,7.4l-0.1,0.6l-5.2,9.5l-13,23.9l-0.6,1.1l-28.9,6.8
		l-13-14.7l-7-7.9l-5.3-37l-1.7-11.8l-2.6-17.9l-0.3-2.5c0,0,0,0,0,0L159.8,49.6c-1-8.3,5-15.9,13.3-16.9c0.6-0.1,1.3-0.1,1.9-0.1
		c7.2,0,13.6,5.1,15,12.3l24,117.9c0.8,4.3,6.8,4.6,8.2,0.5l32.6-101.9c2.4-7,9.7-11,16.9-9.2C278,53.8,282.3,59.5,282.3,65.8z"/>
	<path class="st0" d="M257.5,225.8l-60.8,141.7h-35.8v-70.6c0,0-9.7-5.8-27.3-26.5c-14.9-17.6-16.5-49.2-15.9-67.8
		c0.3-8.8,1-14.7,1-14.7l10.9-3.6l10,0.1l38.6,0.5l3.8,0.1l59.7,0.8l5,12.8l6.2,15.8l1.5,3.9L257.5,225.8z"/>
	<path class="st1" d="M257.5,225.8l-1.4-3.5l-0.2-5.6l-8.1,0.7c3.9-5.6,6-9.7,6-9.7s0.2-7.6-7.7-8.4c-0.6-0.1-1.3-0.1-2-0.1
		c-6.5,0.2-16.4,1.4-31.9,1.1c-0.6,0-1.2,0-1.8,0c-6.8-0.2-14.6-0.6-23.7-1.6c-0.7-0.1-1.3,0-1.9,0.2c-0.1-0.6-0.3-1.4-0.5-2.3l0,0
		l-0.1-0.3c-0.6-2.8-1.6-6.8-2.6-11l-0.1-0.3c0,0-2.5-11.4-6-18c-3.5-1.6-6.7-2.4-9.5-2.8l1,20.6l-37.5-0.5l-10.9,3.6
		c0,0-3.4,27.1,1.8,52.4c7.3,7,25.2,18,63.9,14c0,0-14,19.1-0.9,48.6c5.2,11.8,21.2,11,38.4,5.7l30.7-71.6l3.8,0.3l-0.3-8.7
		L257.5,225.8z"/>
	<path class="st0" d="M151.6,233.7c0,0,0.1,4.1-4,6.8c-0.5,0.4-1.1,0.7-1.8,1c-2,0.9-4.6,1.4-8.2,1.4c-14.3,0-14.3-8.9-18.8-55.1
		c0,0,3.1-16,20.7-13c0.6,0.1,1.2,0.2,1.8,0.3c0.9,0.2,1.9,0.5,2.9,0.8L151.6,233.7z"/>
	<path class="st0" d="M184.2,226.6C184.2,226.6,184.2,226.7,184.2,226.6c0,1.4-0.4,15.4-11.7,17.3c-10.8,1.8-17.7-1.2-20.9-10.2
		l-7.5-57.8c0,0,6.4-13.6,22.1-11.7c2.9,0.4,6,1.2,9.5,2.8l2.6,17.9l1.8,12.2L184.2,226.6z"/>
	<path class="st1" d="M151.6,233.7c0,0,0.1,4.1-4,6.8l-8.1-65.7c0.6,0.1,1.2,0.2,1.8,0.3c0.9,0.2,1.9,0.5,2.9,0.8L151.6,233.7z"/>
	<path class="st0" d="M181.9,276.9v90.6h54.2v-73.3l33.7-49.9c2.2-3.2,2.3-7.4,0.3-10.7l-15.3-26c-2.2-3.7-6.5-5.6-10.7-4.8
		c-9.8,2-29.1,4.6-53.3,1.4c-2.6-0.3-5,1.5-5.4,4.1c-1.3,9.5-0.7,30.3,29,33.1C214.4,241.5,185.5,248.6,181.9,276.9z"/>
</g>
</svg>
